{
  "asset": {
    "version": "2.0",
    "generator": "THREE.GLTFExporter"
  },
  "scenes": [
    {
      "name": "Scene",
      "nodes": [
        2,
        3,
        4,
        5,
        6,
        7,
        8
      ]
    }
  ],
  "scene": 0,
  "nodes": [
    {
      "rotation": [
        0.7071068286895752,
        0,
        0,
        0.7071067094802856
      ],
      "scale": [
        0.009999999776482582,
        0.009999999776482582,
        0.009999999776482582
      ],
      "name": "Palm",
      "extras": {
        "name": "Palm"
      },
      "mesh": 0
    },
    {
      "rotation": [
        0.7071068286895752,
        0,
        0,
        0.7071067094802856
      ],
      "scale": [
        0.009999999776482582,
        0.009999999776482582,
        0.009999999776482582
      ],
      "name": "Stand",
      "extras": {
        "name": "Stand"
      },
      "mesh": 1
    },
    {
      "name": "goldPalm.gltf",
      "children": [
        0,
        1
      ]
    },
    {
      "translation": [
        25.86,
        6.02,
        6.835439882205451
      ],
      "name": "DirectionalLight",
      "extensions": {
        "KHR_lights_punctual": {
          "light": 0
        }
      }
    },
    {
      "translation": [
        40.8,
        13.62,
        -14
      ],
      "name": "DirectionalLight",
      "extensions": {
        "KHR_lights_punctual": {
          "light": 1
        }
      }
    },
    {
      "translation": [
        -9.18,
        7.74,
        1.64
      ],
      "name": "DirectionalLight",
      "extensions": {
        "KHR_lights_punctual": {
          "light": 2
        }
      }
    },
    {
      "translation": [
        0.17932177380442313,
        0.07112617885791271,
        0.02045857537698309
      ],
      "name": "PointLight",
      "extensions": {
        "KHR_lights_punctual": {
          "light": 3
        }
      }
    },
    {
      "translation": [
        -0.3188739419861644,
        0.10668380381674591,
        0.30439151149380217
      ],
      "name": "PointLight",
      "extensions": {
        "KHR_lights_punctual": {
          "light": 4
        }
      }
    },
    {
      "translation": [
        -0.17936305536087377,
        0.0141800341697388,
        -0.09598728706337928
      ],
      "name": "PointLight",
      "extensions": {
        "KHR_lights_punctual": {
          "light": 5
        }
      }
    }
  ],
  "bufferViews": [
    {
      "buffer": 0,
      "byteOffset": 0,
      "byteLength": 46344,
      "target": 34962,
      "byteStride": 12
    },
    {
      "buffer": 0,
      "byteOffset": 46344,
      "byteLength": 46344,
      "target": 34962,
      "byteStride": 12
    },
    {
      "buffer": 0,
      "byteOffset": 92688,
      "byteLength": 30896,
      "target": 34962,
      "byteStride": 8
    },
    {
      "buffer": 0,
      "byteOffset": 123584,
      "byteLength": 7728,
      "target": 34963
    },
    {
      "buffer": 0,
      "byteOffset": 131312,
      "byteLength": 5952,
      "target": 34962,
      "byteStride": 12
    },
    {
      "buffer": 0,
      "byteOffset": 137264,
      "byteLength": 5952,
      "target": 34962,
      "byteStride": 12
    },
    {
      "buffer": 0,
      "byteOffset": 143216,
      "byteLength": 3968,
      "target": 34962,
      "byteStride": 8
    },
    {
      "buffer": 0,
      "byteOffset": 147184,
      "byteLength": 2844,
      "target": 34963
    },
    {
      "buffer": 0,
      "byteOffset": 150028,
      "byteLength": 1000
    },
    {
      "buffer": 0,
      "byteOffset": 151028,
      "byteLength": 3000
    },
    {
      "buffer": 0,
      "byteOffset": 154028,
      "byteLength": 1000
    },
    {
      "buffer": 0,
      "byteOffset": 155028,
      "byteLength": 4000
    }
  ],
  "buffers": [
    {
      "byteLength": 159028,
      "uri": "data:application/octet-stream;base64,"
    }
  ],
  "accessors": [
    {
      "bufferView": 0,
      "componentType": 5126,
      "count": 3862,
      "max": [
        6.299963474273682,
        5.391915321350098,
        -3.8625285625457764
      ],
      "min": [
        -6.285478591918945,
        -8.449861526489258,
        -19.7427978515625
      ],
      "type": "VEC3"
    },
    {
      "bufferView": 1,
      "componentType": 5126,
      "count": 3862,
      "max": [
        0.9994434714317322,
        0.9977940917015076,
        0.9993972182273865
      ],
      "min": [
        -0.9999380111694336,
        -0.986905574798584,
        -0.9932119846343994
      ],
      "type": "VEC3"
    },
    {
      "bufferView": 2,
      "componentType": 5126,
      "count": 3862,
      "max": [
        0.44571399688720703,
        0.524688720703125
      ],
      "min": [
        0.36076098680496216,
        0.42158758640289307
      ],
      "type": "VEC2"
    },
    {
      "bufferView": 3,
      "componentType": 5123,
      "count": 3864,
      "max": [
        3861
      ],
      "min": [
        0
      ],
      "type": "SCALAR"
    },
    {
      "bufferView": 4,
      "componentType": 5126,
      "count": 496,
      "max": [
        7.725209712982178,
        7.4615702629089355,
        0
      ],
      "min": [
        -7.744086742401123,
        -8.00772476196289,
        -2.4093716144561768
      ],
      "type": "VEC3"
    },
    {
      "bufferView": 5,
      "componentType": 5126,
      "count": 496,
      "max": [
        1,
        1,
        1
      ],
      "min": [
        -1,
        -1,
        -1
      ],
      "type": "VEC3"
    },
    {
      "bufferView": 6,
      "componentType": 5126,
      "count": 496,
      "max": [
        0.9788773655891418,
        1
      ],
      "min": [
        0,
        0.04966837167739868
      ],
      "type": "VEC2"
    },
    {
      "bufferView": 7,
      "componentType": 5123,
      "count": 1422,
      "max": [
        495
      ],
      "min": [
        0
      ],
      "type": "SCALAR"
    },
    {
      "bufferView": 8,
      "componentType": 5126,
      "count": 250,
      "max": [
        10.416666984558105
      ],
      "min": [
        0.0416666679084301
      ],
      "type": "SCALAR"
    },
    {
      "bufferView": 9,
      "componentType": 5126,
      "count": 250,
      "max": [
        0,
        0.009999999776482582,
        0
      ],
      "min": [
        0,
        0,
        0
      ],
      "type": "VEC3"
    },
    {
      "bufferView": 10,
      "componentType": 5126,
      "count": 250,
      "max": [
        10.416666984558105
      ],
      "min": [
        0.0416666679084301
      ],
      "type": "SCALAR"
    },
    {
      "bufferView": 11,
      "componentType": 5126,
      "count": 250,
      "max": [
        0.7097283601760864,
        0.07379061728715897,
        0,
        0.7091949582099915
      ],
      "min": [
        0.7007846832275391,
        0,
        -0.07378829270601273,
        0.7024829387664795
      ],
      "type": "VEC4"
    }
  ],
  "materials": [
    {
      "pbrMetallicRoughness": {
        "metallicFactor": 1,
        "roughnessFactor": 0.25146740674972534,
        "baseColorTexture": {
          "index": 0
        }
      },
      "emissiveFactor": [
        1,
        1,
        1
      ],
      "emissiveTexture": {
        "index": 1
      },
      "doubleSided": true,
      "name": "material",
      "extensions": {
        "KHR_materials_clearcoat": {
          "clearcoatFactor": 0,
          "clearcoatRoughnessFactor": 0
        },
        "KHR_materials_iridescence": {
          "iridescenceFactor": 0,
          "iridescenceIor": 1.3,
          "iridescenceThicknessMinimum": 100,
          "iridescenceThicknessMaximum": 400
        }
      }
    }
  ],
  "textures": [
    {
      "sampler": 0,
      "source": 0,
      "name": "GoldColor - Copy"
    },
    {
      "sampler": 1,
      "source": 1,
      "name": "BronzeEmission"
    }
  ],
  "samplers": [
    {
      "magFilter": 9729,
      "minFilter": 9987,
      "wrapS": 10497,
      "wrapT": 10497
    },
    {
      "magFilter": 9729,
      "minFilter": 9987,
      "wrapS": 10497,
      "wrapT": 10497
    }
  ],
  "images": [
    {
      "mimeType": "image/jpeg",
      "uri": "data:image/jpeg;base64,"
    },
    {
      "mimeType": "image/jpeg",
      "uri": "data:image/jpeg;base64,"
    }
  ],
  "meshes": [
    {
      "primitives": [
        {
          "mode": 4,
          "attributes": {
            "POSITION": 0,
            "NORMAL": 1,
            "TEXCOORD_0": 2
          },
          "indices": 3,
          "material": 0
        }
      ]
    },
    {
      "primitives": [
        {
          "mode": 4,
          "attributes": {
            "POSITION": 4,
            "NORMAL": 5,
            "TEXCOORD_0": 6
          },
          "indices": 7,
          "material": 0
        }
      ]
    }
  ],
  "extensions": {
    "KHR_lights_punctual": {
      "lights": [
        {
          "name": "DirectionalLight",
          "color": [
            0.996078431372549,
            0.6980392156862745,
            0.2823529411764706
          ],
          "intensity": 1,
          "type": "directional"
        },
        {
          "name": "DirectionalLight",
          "color": [
            0.9921568627450981,
            0.7568627450980392,
            0.42745098039215684
          ],
          "intensity": 1,
          "type": "directional"
        },
        {
          "name": "DirectionalLight",
          "color": [
            1,
            1,
            1
          ],
          "intensity": 1,
          "type": "directional"
        },
        {
          "name": "PointLight",
          "color": [
            1,
            1,
            1
          ],
          "intensity": 24.24,
          "type": "point"
        },
        {
          "name": "PointLight",
          "color": [
            1,
            1,
            1
          ],
          "intensity": 17.8,
          "type": "point"
        },
        {
          "name": "PointLight",
          "color": [
            1,
            1,
            1
          ],
          "intensity": 10.62,
          "type": "point"
        }
      ]
    }
  },
  "animations": [
    {
      "name": "bronzePalmAction",
      "samplers": [
        {
          "input": 8,
          "output": 9,
          "interpolation": "LINEAR"
        },
        {
          "input": 10,
          "output": 11,
          "interpolation": "LINEAR"
        }
      ],
      "channels": [
        {
          "sampler": 0,
          "target": {
            "node": 0,
            "path": "translation"
          }
        },
        {
          "sampler": 1,
          "target": {
            "node": 0,
            "path": "rotation"
          }
        }
      ]
    }
  ],
  "extensionsUsed": [
    "KHR_materials_clearcoat",
    "KHR_materials_iridescence",
    "KHR_lights_punctual"
  ]
}