{
    "asset" : {
        "generator" : "Khronos glTF Blender I/O v3.3.32",
        "version" : "2.0"
    },
    "extensionsUsed" : [
        "KHR_materials_transmission",
        "KHR_materials_specular",
        "KHR_materials_ior"
    ],
    "scene" : 0,
    "scenes" : [
        {
            "name" : "Scene",
            "nodes" : [
                0,
                1
            ]
        }
    ],
    "nodes" : [
        {
            "mesh" : 0,
            "name" : "Stand",
            "rotation" : [
                0.7071068286895752,
                0,
                0,
                0.7071067094802856
            ],
            "scale" : [
                0.009999999776482582,
                0.009999999776482582,
                0.009999999776482582
            ]
        },
        {
            "mesh" : 1,
            "name" : "ultraPalm",
            "rotation" : [
                0.7071068286895752,
                0,
                0,
                0.7071067094802856
            ],
            "scale" : [
                0.009999999776482582,
                0.009999999776482582,
                0.009999999776482582
            ]
        }
    ],
    "animations" : [
        {
            "channels" : [
                {
                    "sampler" : 0,
                    "target" : {
                        "node" : 1,
                        "path" : "translation"
                    }
                },
                {
                    "sampler" : 1,
                    "target" : {
                        "node" : 1,
                        "path" : "rotation"
                    }
                }
            ],
            "name" : "ultraPalmAction",
            "samplers" : [
                {
                    "input" : 8,
                    "interpolation" : "LINEAR",
                    "output" : 9
                },
                {
                    "input" : 8,
                    "interpolation" : "LINEAR",
                    "output" : 10
                }
            ]
        }
    ],
    "materials" : [
        {
            "doubleSided" : true,
            "emissiveFactor" : [
                1,
                1,
                1
            ],
            "emissiveTexture" : {
                "index" : 0
            },
            "extensions" : {
                "KHR_materials_transmission" : {
                    "transmissionFactor" : 0.18897640705108643
                },
                "KHR_materials_specular" : {
                    "specularColorFactor" : [
                        0.18897640705108643,
                        0.18897640705108643,
                        0.18897640705108643
                    ]
                },
                "KHR_materials_ior" : {
                    "ior" : 1.4500000476837158
                }
            },
            "name" : "RainbowTreeNFT",
            "pbrMetallicRoughness" : {
                "baseColorFactor" : [
                    1,
                    1,
                    1,
                    0.4724409580230713
                ],
                "baseColorTexture" : {
                    "index" : 1
                },
                "metallicFactor" : 0.6141732335090637,
                "roughnessFactor" : 0.03937007859349251
            }
        }
    ],
    "meshes" : [
        {
            "name" : "Cylinder.001",
            "primitives" : [
                {
                    "attributes" : {
                        "POSITION" : 0,
                        "NORMAL" : 1,
                        "TEXCOORD_0" : 2
                    },
                    "indices" : 3,
                    "material" : 0
                }
            ]
        },
        {
            "name" : "Cylinder.005",
            "primitives" : [
                {
                    "attributes" : {
                        "POSITION" : 4,
                        "NORMAL" : 5,
                        "TEXCOORD_0" : 6
                    },
                    "indices" : 7,
                    "material" : 0
                }
            ]
        }
    ],
    "textures" : [
        {
            "sampler" : 0,
            "source" : 0
        },
        {
            "sampler" : 0,
            "source" : 1
        }
    ],
    "images" : [
        {
            "bufferView" : 4,
            "mimeType" : "image/jpeg",
            "name" : "UltraEmission"
        },
        {
            "bufferView" : 5,
            "mimeType" : "image/jpeg",
            "name" : "UltraColor"
        }
    ],
    "accessors" : [
        {
            "bufferView" : 0,
            "componentType" : 5126,
            "count" : 496,
            "max" : [
                7.725209712982178,
                7.4615702629089355,
                0
            ],
            "min" : [
                -7.744086742401123,
                -8.00772476196289,
                -2.4093716144561768
            ],
            "type" : "VEC3"
        },
        {
            "bufferView" : 1,
            "componentType" : 5126,
            "count" : 496,
            "type" : "VEC3"
        },
        {
            "bufferView" : 2,
            "componentType" : 5126,
            "count" : 496,
            "type" : "VEC2"
        },
        {
            "bufferView" : 3,
            "componentType" : 5123,
            "count" : 1422,
            "type" : "SCALAR"
        },
        {
            "bufferView" : 6,
            "componentType" : 5126,
            "count" : 3464,
            "max" : [
                6.321093559265137,
                5.399320125579834,
                -3.8571290969848633
            ],
            "min" : [
                -6.298214912414551,
                -8.500385284423828,
                -19.765979766845703
            ],
            "type" : "VEC3"
        },
        {
            "bufferView" : 7,
            "componentType" : 5126,
            "count" : 3464,
            "type" : "VEC3"
        },
        {
            "bufferView" : 8,
            "componentType" : 5126,
            "count" : 3464,
            "type" : "VEC2"
        },
        {
            "bufferView" : 9,
            "componentType" : 5123,
            "count" : 4791,
            "type" : "SCALAR"
        },
        {
            "bufferView" : 10,
            "componentType" : 5126,
            "count" : 250,
            "max" : [
                10.416666666666666
            ],
            "min" : [
                0.041666666666666664
            ],
            "type" : "SCALAR"
        },
        {
            "bufferView" : 11,
            "componentType" : 5126,
            "count" : 250,
            "type" : "VEC3"
        },
        {
            "bufferView" : 12,
            "componentType" : 5126,
            "count" : 250,
            "type" : "VEC4"
        }
    ],
    "bufferViews" : [
        {
            "buffer" : 0,
            "byteLength" : 5952,
            "byteOffset" : 0,
            "target" : 34962
        },
        {
            "buffer" : 0,
            "byteLength" : 5952,
            "byteOffset" : 5952,
            "target" : 34962
        },
        {
            "buffer" : 0,
            "byteLength" : 3968,
            "byteOffset" : 11904,
            "target" : 34962
        },
        {
            "buffer" : 0,
            "byteLength" : 2844,
            "byteOffset" : 15872,
            "target" : 34963
        },
        {
            "buffer" : 0,
            "byteLength" : 149719,
            "byteOffset" : 18716
        },
        {
            "buffer" : 0,
            "byteLength" : 156579,
            "byteOffset" : 168436
        },
        {
            "buffer" : 0,
            "byteLength" : 41568,
            "byteOffset" : 325016,
            "target" : 34962
        },
        {
            "buffer" : 0,
            "byteLength" : 41568,
            "byteOffset" : 366584,
            "target" : 34962
        },
        {
            "buffer" : 0,
            "byteLength" : 27712,
            "byteOffset" : 408152,
            "target" : 34962
        },
        {
            "buffer" : 0,
            "byteLength" : 9582,
            "byteOffset" : 435864,
            "target" : 34963
        },
        {
            "buffer" : 0,
            "byteLength" : 1000,
            "byteOffset" : 445448
        },
        {
            "buffer" : 0,
            "byteLength" : 3000,
            "byteOffset" : 446448
        },
        {
            "buffer" : 0,
            "byteLength" : 4000,
            "byteOffset" : 449448
        }
    ],
    "samplers" : [
        {
            "magFilter" : 9729,
            "minFilter" : 9987
        }
    ],
    "buffers" : [
        {
            "byteLength" : 453448,
            "uri" : "data:application/octet-stream;base64,"
        }
    ]
}
